<?xml version="1.0" encoding="UTF-8"?>
<svg id="Layer_1" data-name="Layer 1" xmlns="http://www.w3.org/2000/svg" version="1.1" xmlns:xlink="http://www.w3.org/1999/xlink" viewBox="0 0 460.8 345.6">
  <defs>
    <style>
      .cls-1, .cls-2, .cls-3, .cls-4 {
        stroke-width: 0px;
      }

      .cls-1, .cls-5, .cls-6, .cls-7 {
        fill: #000;
      }

      .cls-2 {
        fill: #1f77b4;
      }

      .cls-8 {
        clip-path: url(#clippath-2);
      }

      .cls-5 {
        font-size: 21px;
      }

      .cls-5, .cls-9, .cls-7 {
        font-family: MyriadPro-Regular, 'Myriad Pro';
      }

      .cls-3, .cls-10 {
        fill: none;
      }

      .cls-11 {
        clip-path: url(#clippath-1);
      }

      .cls-12 {
        clip-path: url(#clippath-4);
      }

      .cls-6 {
        stroke-linejoin: round;
      }

      .cls-6, .cls-10 {
        stroke: #000;
        stroke-width: .8px;
      }

      .cls-9 {
        fill: #a0a0a0;
        font-size: 8px;
      }

      .cls-13 {
        clip-path: url(#clippath);
      }

      .cls-14 {
        clip-path: url(#clippath-3);
      }

      .cls-7 {
        font-size: 12px;
      }

      .cls-10 {
        stroke-linecap: square;
      }

      .cls-4 {
        fill: #fff;
      }
    </style>
    <clipPath id="clippath">
      <rect class="cls-3" x="61.9" y="41.5" width="357.1" height="266.1"/>
    </clipPath>
    <clipPath id="clippath-1">
      <rect class="cls-3" x="61.9" y="41.5" width="357.1" height="266.1"/>
    </clipPath>
    <clipPath id="clippath-2">
      <rect class="cls-3" x="61.9" y="41.5" width="357.1" height="266.1"/>
    </clipPath>
    <clipPath id="clippath-3">
      <rect class="cls-3" x="61.9" y="41.5" width="357.1" height="266.1"/>
    </clipPath>
    <clipPath id="clippath-4">
      <rect class="cls-3" x="61.9" y="41.5" width="357.1" height="266.1"/>
    </clipPath>
  </defs>
  <g id="figure_1" data-name="figure 1">
    <g id="patch_1" data-name="patch 1">
      <path class="cls-4" d="M4.3,0v345.6h460.8V0H4.3Z"/>
    </g>
    <g id="axes_1" data-name="axes 1">
      <g id="patch_2" data-name="patch 2">
        <path class="cls-4" d="M61.9,307.6h357.1V41.5H61.9v266.1Z"/>
      </g>
      <g id="patch_3" data-name="patch 3">
        <g class="cls-13">
          <path class="cls-2" d="M61.9,294.3h340.1v-26.6H61.9v26.6Z"/>
        </g>
      </g>
      <g id="patch_4" data-name="patch 4">
        <g class="cls-11">
          <path class="cls-2" d="M61.9,241.1h256.7v-26.6H61.9v26.6Z"/>
        </g>
      </g>
      <g id="patch_5" data-name="patch 5">
        <g class="cls-8">
          <path class="cls-2" d="M61.9,187.8h237.2v-26.6H61.9v26.6Z"/>
        </g>
      </g>
      <g id="patch_6" data-name="patch 6">
        <g class="cls-14">
          <path class="cls-2" d="M61.9,134.6h193.7v-26.6H61.9v26.6Z"/>
        </g>
      </g>
      <g id="patch_7" data-name="patch 7">
        <g class="cls-12">
          <path class="cls-2" d="M61.9,81.4h125.4v-26.6H61.9v26.6Z"/>
        </g>
      </g>
      <g id="matplotlib.axis_1" data-name="matplotlib.axis 1">
        <g id="xtick_1" data-name="xtick 1">
          <g id="line2d_1" data-name="line2d 1">
            <path id="m7f5a016d41" class="cls-6" d="M61.9,307.6v3.5"/>
          </g>
          <g id="text_1" data-name="text 1">
            <path id="DejaVuSans-30" class="cls-1" d="M61.9,315.5c-.5,0-.9.3-1.1.8-.3.5-.4,1.3-.4,2.3s.1,1.7.4,2.2c.3.5.6.8,1.1.8s.9-.3,1.2-.8c.3-.5.4-1.2.4-2.2s-.1-1.8-.4-2.3c-.3-.5-.6-.8-1.2-.8ZM61.9,314.8c.8,0,1.4.3,1.9,1,.4.6.6,1.6.6,2.8s-.2,2.2-.6,2.8c-.4.6-1.1,1-1.9,1s-1.4-.3-1.9-1c-.4-.6-.6-1.6-.6-2.8s.2-2.2.6-2.8c.4-.6,1.1-1,1.9-1Z"/>
          </g>
        </g>
        <g id="xtick_2" data-name="xtick 2">
          <g id="line2d_2" data-name="line2d 2">
            <path id="m7f5a016d41-2" data-name="m7f5a016d41" class="cls-6" d="M106.3,307.6v3.5"/>
          </g>
          <g id="text_2" data-name="text 2">
            <g>
              <path id="DejaVuSans-32" class="cls-1" d="M98.6,321.4h3.4v.8h-4.6v-.8c.4-.4.9-.9,1.5-1.6.6-.7,1.1-1.1,1.2-1.3.3-.4.5-.7.7-.9.1-.2.2-.5.2-.7,0-.4-.1-.7-.4-.9-.3-.2-.6-.4-1.1-.4s-.6,0-1,.2c-.3.1-.7.3-1.1.5v-1c.4-.2.8-.3,1.1-.4.3,0,.7-.1.9-.1.8,0,1.4.2,1.8.6.4.4.7.9.7,1.5s0,.6-.2.9c-.1.3-.3.6-.6.9,0,0-.3.4-.8.8-.4.5-1.1,1.1-1.8,1.9Z"/>
              <path id="DejaVuSans-35" class="cls-1" d="M104.2,314.9h3.9v.8h-3v1.8c.1,0,.3,0,.4-.1.1,0,.3,0,.4,0,.8,0,1.5.2,1.9.7.5.4.7,1,.7,1.8s-.2,1.4-.7,1.8c-.5.4-1.2.7-2.1.7s-.6,0-.9,0c-.3,0-.6-.1-1-.2v-1c.3.2.6.3.9.4s.6.1,1,.1c.6,0,1-.1,1.3-.4.3-.3.5-.7.5-1.2s-.2-.9-.5-1.2c-.3-.3-.8-.4-1.3-.4s-.5,0-.8,0c-.3,0-.5.1-.8.3v-3.7Z"/>
              <path id="DejaVuSans-30-2" data-name="DejaVuSans-30" class="cls-1" d="M112.6,315.5c-.5,0-.9.3-1.1.8-.3.5-.4,1.3-.4,2.3s.1,1.7.4,2.2c.3.5.6.8,1.1.8s.9-.3,1.2-.8c.3-.5.4-1.2.4-2.2s-.1-1.8-.4-2.3c-.3-.5-.6-.8-1.2-.8ZM112.6,314.8c.8,0,1.4.3,1.9,1,.4.6.6,1.6.6,2.8s-.2,2.2-.6,2.8c-.4.6-1.1,1-1.9,1s-1.4-.3-1.9-1c-.4-.6-.6-1.6-.6-2.8s.2-2.2.6-2.8c.4-.6,1.1-1,1.9-1Z"/>
            </g>
          </g>
        </g>
        <g id="xtick_3" data-name="xtick 3">
          <g id="line2d_3" data-name="line2d 3">
            <path id="m7f5a016d41-3" data-name="m7f5a016d41" class="cls-6" d="M150.6,307.6v3.5"/>
          </g>
          <g id="text_3" data-name="text 3">
            <g>
              <path id="DejaVuSans-35-2" data-name="DejaVuSans-35" class="cls-1" d="M142.2,314.9h3.9v.8h-3v1.8c.1,0,.3,0,.4-.1.1,0,.3,0,.4,0,.8,0,1.5.2,1.9.7.5.4.7,1,.7,1.8s-.2,1.4-.7,1.8c-.5.4-1.2.7-2.1.7s-.6,0-.9,0c-.3,0-.6-.1-1-.2v-1c.3.2.6.3.9.4s.6.1,1,.1c.6,0,1-.1,1.3-.4.3-.3.5-.7.5-1.2s-.2-.9-.5-1.2c-.3-.3-.8-.4-1.3-.4s-.5,0-.8,0c-.3,0-.5.1-.8.3v-3.7Z"/>
              <path id="DejaVuSans-30-3" data-name="DejaVuSans-30" class="cls-1" d="M150.6,315.5c-.5,0-.9.3-1.1.8-.3.5-.4,1.3-.4,2.3s.1,1.7.4,2.2c.3.5.6.8,1.1.8s.9-.3,1.2-.8c.3-.5.4-1.2.4-2.2s-.1-1.8-.4-2.3c-.3-.5-.6-.8-1.2-.8ZM150.6,314.8c.8,0,1.4.3,1.9,1,.4.6.6,1.6.6,2.8s-.2,2.2-.6,2.8c-.4.6-1.1,1-1.9,1s-1.4-.3-1.9-1c-.4-.6-.6-1.6-.6-2.8s.2-2.2.6-2.8c.4-.6,1.1-1,1.9-1Z"/>
              <path id="DejaVuSans-30-4" data-name="DejaVuSans-30" class="cls-1" d="M157,315.5c-.5,0-.9.3-1.1.8-.3.5-.4,1.3-.4,2.3s.1,1.7.4,2.2c.3.5.6.8,1.1.8s.9-.3,1.2-.8c.3-.5.4-1.2.4-2.2s-.1-1.8-.4-2.3c-.3-.5-.6-.8-1.2-.8ZM157,314.8c.8,0,1.4.3,1.9,1,.4.6.6,1.6.6,2.8s-.2,2.2-.6,2.8c-.4.6-1.1,1-1.9,1s-1.4-.3-1.9-1c-.4-.6-.6-1.6-.6-2.8s.2-2.2.6-2.8c.4-.6,1.1-1,1.9-1Z"/>
            </g>
          </g>
        </g>
        <g id="xtick_4" data-name="xtick 4">
          <g id="line2d_4" data-name="line2d 4">
            <path id="m7f5a016d41-4" data-name="m7f5a016d41" class="cls-6" d="M195,307.6v3.5"/>
          </g>
          <g id="text_4" data-name="text 4">
            <g>
              <path id="DejaVuSans-37" class="cls-1" d="M186.3,314.9h4.7v.4l-2.6,6.9h-1l2.5-6.5h-3.5v-.8Z"/>
              <path id="DejaVuSans-35-3" data-name="DejaVuSans-35" class="cls-1" d="M192.9,314.9h3.9v.8h-3v1.8c.1,0,.3,0,.4-.1.1,0,.3,0,.4,0,.8,0,1.5.2,1.9.7.5.4.7,1,.7,1.8s-.2,1.4-.7,1.8c-.5.4-1.2.7-2.1.7s-.6,0-.9,0c-.3,0-.6-.1-1-.2v-1c.3.2.6.3.9.4s.6.1,1,.1c.6,0,1-.1,1.3-.4.3-.3.5-.7.5-1.2s-.2-.9-.5-1.2c-.3-.3-.8-.4-1.3-.4s-.5,0-.8,0c-.3,0-.5.1-.8.3v-3.7Z"/>
              <path id="DejaVuSans-30-5" data-name="DejaVuSans-30" class="cls-1" d="M201.3,315.5c-.5,0-.9.3-1.1.8-.3.5-.4,1.3-.4,2.3s.1,1.7.4,2.2c.3.5.6.8,1.1.8s.9-.3,1.2-.8c.3-.5.4-1.2.4-2.2s-.1-1.8-.4-2.3c-.3-.5-.6-.8-1.2-.8ZM201.3,314.8c.8,0,1.4.3,1.9,1,.4.6.6,1.6.6,2.8s-.2,2.2-.6,2.8c-.4.6-1.1,1-1.9,1s-1.4-.3-1.9-1c-.4-.6-.6-1.6-.6-2.8s.2-2.2.6-2.8c.4-.6,1.1-1,1.9-1Z"/>
            </g>
          </g>
        </g>
        <g id="xtick_5" data-name="xtick 5">
          <g id="line2d_5" data-name="line2d 5">
            <path id="m7f5a016d41-5" data-name="m7f5a016d41" class="cls-6" d="M239.3,307.6v3.5"/>
          </g>
          <g id="text_5" data-name="text 5">
            <g>
              <path id="DejaVuSans-31" class="cls-1" d="M227.8,321.4h1.6v-5.6l-1.8.4v-.9l1.7-.4h1v6.5h1.6v.8h-4.2v-.8Z"/>
              <path id="DejaVuSans-30-6" data-name="DejaVuSans-30" class="cls-1" d="M236.1,315.5c-.5,0-.9.3-1.1.8-.3.5-.4,1.3-.4,2.3s.1,1.7.4,2.2c.3.5.6.8,1.1.8s.9-.3,1.2-.8c.3-.5.4-1.2.4-2.2s-.1-1.8-.4-2.3c-.3-.5-.6-.8-1.2-.8ZM236.1,314.8c.8,0,1.4.3,1.9,1,.4.6.6,1.6.6,2.8s-.2,2.2-.6,2.8c-.4.6-1.1,1-1.9,1s-1.4-.3-1.9-1c-.4-.6-.6-1.6-.6-2.8s.2-2.2.6-2.8c.4-.6,1.1-1,1.9-1Z"/>
              <path id="DejaVuSans-30-7" data-name="DejaVuSans-30" class="cls-1" d="M242.5,315.5c-.5,0-.9.3-1.1.8-.3.5-.4,1.3-.4,2.3s.1,1.7.4,2.2c.3.5.6.8,1.1.8s.9-.3,1.2-.8c.3-.5.4-1.2.4-2.2s-.1-1.8-.4-2.3c-.3-.5-.6-.8-1.2-.8ZM242.5,314.8c.8,0,1.4.3,1.9,1,.4.6.6,1.6.6,2.8s-.2,2.2-.6,2.8c-.4.6-1.1,1-1.9,1s-1.4-.3-1.9-1c-.4-.6-.6-1.6-.6-2.8s.2-2.2.6-2.8c.4-.6,1.1-1,1.9-1Z"/>
              <path id="DejaVuSans-30-8" data-name="DejaVuSans-30" class="cls-1" d="M248.9,315.5c-.5,0-.9.3-1.1.8-.3.5-.4,1.3-.4,2.3s.1,1.7.4,2.2c.3.5.6.8,1.1.8s.9-.3,1.2-.8c.3-.5.4-1.2.4-2.2s-.1-1.8-.4-2.3c-.3-.5-.6-.8-1.2-.8ZM248.9,314.8c.8,0,1.4.3,1.9,1,.4.6.6,1.6.6,2.8s-.2,2.2-.6,2.8c-.4.6-1.1,1-1.9,1s-1.4-.3-1.9-1c-.4-.6-.6-1.6-.6-2.8s.2-2.2.6-2.8c.4-.6,1.1-1,1.9-1Z"/>
            </g>
          </g>
        </g>
        <g id="xtick_6" data-name="xtick 6">
          <g id="line2d_6" data-name="line2d 6">
            <path id="m7f5a016d41-6" data-name="m7f5a016d41" class="cls-6" d="M283.7,307.6v3.5"/>
          </g>
          <g id="text_6" data-name="text 6">
            <g>
              <path id="DejaVuSans-31-2" data-name="DejaVuSans-31" class="cls-1" d="M272.2,321.4h1.6v-5.6l-1.8.4v-.9l1.7-.4h1v6.5h1.6v.8h-4.2v-.8Z"/>
              <path id="DejaVuSans-32-2" data-name="DejaVuSans-32" class="cls-1" d="M279.2,321.4h3.4v.8h-4.6v-.8c.4-.4.9-.9,1.5-1.6.6-.7,1.1-1.1,1.2-1.3.3-.4.5-.7.7-.9.1-.2.2-.5.2-.7,0-.4-.1-.7-.4-.9-.3-.2-.6-.4-1.1-.4s-.6,0-1,.2c-.3.1-.7.3-1.1.5v-1c.4-.2.8-.3,1.1-.4.3,0,.7-.1.9-.1.8,0,1.4.2,1.8.6.4.4.7.9.7,1.5s0,.6-.2.9c-.1.3-.3.6-.6.9,0,0-.3.4-.8.8-.4.5-1.1,1.1-1.8,1.9Z"/>
              <path id="DejaVuSans-35-4" data-name="DejaVuSans-35" class="cls-1" d="M284.8,314.9h3.9v.8h-3v1.8c.1,0,.3,0,.4-.1.1,0,.3,0,.4,0,.8,0,1.5.2,1.9.7.5.4.7,1,.7,1.8s-.2,1.4-.7,1.8c-.5.4-1.2.7-2.1.7s-.6,0-.9,0c-.3,0-.6-.1-1-.2v-1c.3.2.6.3.9.4s.6.1,1,.1c.6,0,1-.1,1.3-.4.3-.3.5-.7.5-1.2s-.2-.9-.5-1.2c-.3-.3-.8-.4-1.3-.4s-.5,0-.8,0c-.3,0-.5.1-.8.3v-3.7Z"/>
              <path id="DejaVuSans-30-9" data-name="DejaVuSans-30" class="cls-1" d="M293.2,315.5c-.5,0-.9.3-1.1.8-.3.5-.4,1.3-.4,2.3s.1,1.7.4,2.2c.3.5.6.8,1.1.8s.9-.3,1.2-.8c.3-.5.4-1.2.4-2.2s-.1-1.8-.4-2.3c-.3-.5-.6-.8-1.2-.8ZM293.2,314.8c.8,0,1.4.3,1.9,1,.4.6.6,1.6.6,2.8s-.2,2.2-.6,2.8c-.4.6-1.1,1-1.9,1s-1.4-.3-1.9-1c-.4-.6-.6-1.6-.6-2.8s.2-2.2.6-2.8c.4-.6,1.1-1,1.9-1Z"/>
            </g>
          </g>
        </g>
        <g id="xtick_7" data-name="xtick 7">
          <g id="line2d_7" data-name="line2d 7">
            <path id="m7f5a016d41-7" data-name="m7f5a016d41" class="cls-6" d="M328,307.6v3.5"/>
          </g>
          <g id="text_7" data-name="text 7">
            <g>
              <path id="DejaVuSans-31-3" data-name="DejaVuSans-31" class="cls-1" d="M316.6,321.4h1.6v-5.6l-1.8.4v-.9l1.7-.4h1v6.5h1.6v.8h-4.2v-.8Z"/>
              <path id="DejaVuSans-35-5" data-name="DejaVuSans-35" class="cls-1" d="M322.8,314.9h3.9v.8h-3v1.8c.1,0,.3,0,.4-.1.1,0,.3,0,.4,0,.8,0,1.5.2,1.9.7.5.4.7,1,.7,1.8s-.2,1.4-.7,1.8c-.5.4-1.2.7-2.1.7s-.6,0-.9,0c-.3,0-.6-.1-1-.2v-1c.3.2.6.3.9.4s.6.1,1,.1c.6,0,1-.1,1.3-.4.3-.3.5-.7.5-1.2s-.2-.9-.5-1.2c-.3-.3-.8-.4-1.3-.4s-.5,0-.8,0c-.3,0-.5.1-.8.3v-3.7Z"/>
              <path id="DejaVuSans-30-10" data-name="DejaVuSans-30" class="cls-1" d="M331.2,315.5c-.5,0-.9.3-1.1.8-.3.5-.4,1.3-.4,2.3s.1,1.7.4,2.2c.3.5.6.8,1.1.8s.9-.3,1.2-.8c.3-.5.4-1.2.4-2.2s-.1-1.8-.4-2.3c-.3-.5-.6-.8-1.2-.8ZM331.2,314.8c.8,0,1.4.3,1.9,1,.4.6.6,1.6.6,2.8s-.2,2.2-.6,2.8c-.4.6-1.1,1-1.9,1s-1.4-.3-1.9-1c-.4-.6-.6-1.6-.6-2.8s.2-2.2.6-2.8c.4-.6,1.1-1,1.9-1Z"/>
              <path id="DejaVuSans-30-11" data-name="DejaVuSans-30" class="cls-1" d="M337.6,315.5c-.5,0-.9.3-1.1.8-.3.5-.4,1.3-.4,2.3s.1,1.7.4,2.2c.3.5.6.8,1.1.8s.9-.3,1.2-.8c.3-.5.4-1.2.4-2.2s-.1-1.8-.4-2.3c-.3-.5-.6-.8-1.2-.8ZM337.6,314.8c.8,0,1.4.3,1.9,1,.4.6.6,1.6.6,2.8s-.2,2.2-.6,2.8c-.4.6-1.1,1-1.9,1s-1.4-.3-1.9-1c-.4-.6-.6-1.6-.6-2.8s.2-2.2.6-2.8c.4-.6,1.1-1,1.9-1Z"/>
            </g>
          </g>
        </g>
        <g id="xtick_8" data-name="xtick 8">
          <g id="line2d_8" data-name="line2d 8">
            <path id="m7f5a016d41-8" data-name="m7f5a016d41" class="cls-6" d="M372.4,307.6v3.5"/>
          </g>
          <g id="text_8" data-name="text 8">
            <g>
              <path id="DejaVuSans-31-4" data-name="DejaVuSans-31" class="cls-1" d="M360.9,321.4h1.6v-5.6l-1.8.4v-.9l1.7-.4h1v6.5h1.6v.8h-4.2v-.8Z"/>
              <path id="DejaVuSans-37-2" data-name="DejaVuSans-37" class="cls-1" d="M366.9,314.9h4.7v.4l-2.6,6.9h-1l2.5-6.5h-3.5v-.8Z"/>
              <path id="DejaVuSans-35-6" data-name="DejaVuSans-35" class="cls-1" d="M373.5,314.9h3.9v.8h-3v1.8c.1,0,.3,0,.4-.1.1,0,.3,0,.4,0,.8,0,1.5.2,1.9.7.5.4.7,1,.7,1.8s-.2,1.4-.7,1.8c-.5.4-1.2.7-2.1.7s-.6,0-.9,0c-.3,0-.6-.1-1-.2v-1c.3.2.6.3.9.4s.6.1,1,.1c.6,0,1-.1,1.3-.4.3-.3.5-.7.5-1.2s-.2-.9-.5-1.2c-.3-.3-.8-.4-1.3-.4s-.5,0-.8,0c-.3,0-.5.1-.8.3v-3.7Z"/>
              <path id="DejaVuSans-30-12" data-name="DejaVuSans-30" class="cls-1" d="M381.9,315.5c-.5,0-.9.3-1.1.8-.3.5-.4,1.3-.4,2.3s.1,1.7.4,2.2c.3.5.6.8,1.1.8s.9-.3,1.2-.8c.3-.5.4-1.2.4-2.2s-.1-1.8-.4-2.3c-.3-.5-.6-.8-1.2-.8ZM381.9,314.8c.8,0,1.4.3,1.9,1,.4.6.6,1.6.6,2.8s-.2,2.2-.6,2.8c-.4.6-1.1,1-1.9,1s-1.4-.3-1.9-1c-.4-.6-.6-1.6-.6-2.8s.2-2.2.6-2.8c.4-.6,1.1-1,1.9-1Z"/>
            </g>
          </g>
        </g>
        <g id="xtick_9" data-name="xtick 9">
          <g id="line2d_9" data-name="line2d 9">
            <path id="m7f5a016d41-9" data-name="m7f5a016d41" class="cls-6" d="M416.8,307.6v3.5"/>
          </g>
          <g id="text_9" data-name="text 9">
            <g>
              <path id="DejaVuSans-32-3" data-name="DejaVuSans-32" class="cls-1" d="M405.9,321.4h3.4v.8h-4.6v-.8c.4-.4.9-.9,1.5-1.6.6-.7,1.1-1.1,1.2-1.3.3-.4.5-.7.7-.9.1-.2.2-.5.2-.7,0-.4-.1-.7-.4-.9-.3-.2-.6-.4-1.1-.4s-.6,0-1,.2c-.3.1-.7.3-1.1.5v-1c.4-.2.8-.3,1.1-.4.3,0,.7-.1.9-.1.8,0,1.4.2,1.8.6.4.4.7.9.7,1.5s0,.6-.2.9c-.1.3-.3.6-.6.9,0,0-.3.4-.8.8-.4.5-1.1,1.1-1.8,1.9Z"/>
              <path id="DejaVuSans-30-13" data-name="DejaVuSans-30" class="cls-1" d="M413.6,315.5c-.5,0-.9.3-1.1.8-.3.5-.4,1.3-.4,2.3s.1,1.7.4,2.2c.3.5.6.8,1.1.8s.9-.3,1.2-.8c.3-.5.4-1.2.4-2.2s-.1-1.8-.4-2.3c-.3-.5-.6-.8-1.2-.8ZM413.6,314.8c.8,0,1.4.3,1.9,1,.4.6.6,1.6.6,2.8s-.2,2.2-.6,2.8c-.4.6-1.1,1-1.9,1s-1.4-.3-1.9-1c-.4-.6-.6-1.6-.6-2.8s.2-2.2.6-2.8c.4-.6,1.1-1,1.9-1Z"/>
              <path id="DejaVuSans-30-14" data-name="DejaVuSans-30" class="cls-1" d="M419.9,315.5c-.5,0-.9.3-1.1.8-.3.5-.4,1.3-.4,2.3s.1,1.7.4,2.2c.3.5.6.8,1.1.8s.9-.3,1.2-.8c.3-.5.4-1.2.4-2.2s-.1-1.8-.4-2.3c-.3-.5-.6-.8-1.2-.8ZM419.9,314.8c.8,0,1.4.3,1.9,1,.4.6.6,1.6.6,2.8s-.2,2.2-.6,2.8c-.4.6-1.1,1-1.9,1s-1.4-.3-1.9-1c-.4-.6-.6-1.6-.6-2.8s.2-2.2.6-2.8c.4-.6,1.1-1,1.9-1Z"/>
              <path id="DejaVuSans-30-15" data-name="DejaVuSans-30" class="cls-1" d="M426.3,315.5c-.5,0-.9.3-1.1.8-.3.5-.4,1.3-.4,2.3s.1,1.7.4,2.2c.3.5.6.8,1.1.8s.9-.3,1.2-.8c.3-.5.4-1.2.4-2.2s-.1-1.8-.4-2.3c-.3-.5-.6-.8-1.2-.8ZM426.3,314.8c.8,0,1.4.3,1.9,1,.4.6.6,1.6.6,2.8s-.2,2.2-.6,2.8c-.4.6-1.1,1-1.9,1s-1.4-.3-1.9-1c-.4-.6-.6-1.6-.6-2.8s.2-2.2.6-2.8c.4-.6,1.1-1,1.9-1Z"/>
            </g>
          </g>
        </g>
      </g>
      <g id="matplotlib.axis_2" data-name="matplotlib.axis 2">
        <g id="ytick_1" data-name="ytick 1">
          <g id="line2d_10" data-name="line2d 10">
            <path id="md003e66ce0" class="cls-6" d="M61.9,281h-3.5"/>
          </g>
        </g>
        <g id="ytick_2" data-name="ytick 2">
          <g id="line2d_11" data-name="line2d 11">
            <path id="md003e66ce0-2" data-name="md003e66ce0" class="cls-6" d="M61.9,227.8h-3.5"/>
          </g>
        </g>
        <g id="ytick_3" data-name="ytick 3">
          <g id="line2d_12" data-name="line2d 12">
            <path id="md003e66ce0-3" data-name="md003e66ce0" class="cls-6" d="M61.9,174.5h-3.5"/>
          </g>
        </g>
        <g id="ytick_4" data-name="ytick 4">
          <g id="line2d_13" data-name="line2d 13">
            <path id="md003e66ce0-4" data-name="md003e66ce0" class="cls-6" d="M61.9,121.3h-3.5"/>
          </g>
        </g>
        <g id="ytick_5" data-name="ytick 5">
          <g id="line2d_14" data-name="line2d 14">
            <path id="md003e66ce0-5" data-name="md003e66ce0" class="cls-6" d="M61.9,68.1h-3.5"/>
          </g>
        </g>
      </g>
      <g id="patch_8" data-name="patch 8">
        <path class="cls-10" d="M61.9,307.6V41.5"/>
      </g>
      <g id="patch_9" data-name="patch 9">
        <path class="cls-10" d="M419,307.6V41.5"/>
      </g>
      <g id="patch_10" data-name="patch 10">
        <path class="cls-10" d="M61.9,307.6h357.1"/>
      </g>
      <g id="patch_11" data-name="patch 11">
        <path class="cls-10" d="M61.9,41.5h357.1"/>
      </g>
    </g>
  </g>
  <text class="cls-7" transform="translate(38.4 178.5)"><tspan x="0" y="0">11</tspan></text>
  <text class="cls-7" transform="translate(37.2 126.2)"><tspan x="0" y="0">12</tspan></text>
  <text class="cls-7" transform="translate(40.8 70.3)"><tspan x="0" y="0">1</tspan></text>
  <text class="cls-7" transform="translate(39.4 285.3)"><tspan x="0" y="0">10 </tspan></text>
  <text class="cls-7" transform="translate(42.4 232.6)"><tspan x="0" y="0">9</tspan></text>
  <text class="cls-9" transform="translate(5.8 341.2)"><tspan x="0" y="0">Data Source: https://data.cityofnewyork.us/Social-Services/311-Service-reuests-from-2010-to-Present/erm2-nwe9</tspan></text>
  <text class="cls-5" transform="translate(11.5 31)"><tspan x="0" y="0">Most Complaints are logged at 10PM </tspan></text>
</svg>